<svg width="54" height="54" viewBox="0 0 54 54" fill="none" xmlns="http://www.w3.org/2000/svg">
<path d="M29.6667 19H24.3333V13.6667H29.6667M29.6667 40.3333H24.3333V24.3333H29.6667M27 0.333344C23.4981 0.333344 20.0305 1.0231 16.7951 2.36322C13.5598 3.70335 10.62 5.6676 8.14382 8.14383C3.14285 13.1448 0.333332 19.9276 0.333332 27C0.333332 34.0725 3.14285 40.8552 8.14382 45.8562C10.62 48.3324 13.5598 50.2967 16.7951 51.6368C20.0305 52.9769 23.4981 53.6667 27 53.6667C34.0724 53.6667 40.8552 50.8572 45.8562 45.8562C50.8572 40.8552 53.6667 34.0725 53.6667 27C53.6667 23.4981 52.9769 20.0305 51.6368 16.7951C50.2967 13.5598 48.3324 10.6201 45.8562 8.14383C43.38 5.6676 40.4402 3.70335 37.2049 2.36322C33.9695 1.0231 30.5019 0.333344 27 0.333344Z" fill="#222222"/>
</svg>
