<svg width="56" height="56" viewBox="0 0 56 56" fill="none" xmlns="http://www.w3.org/2000/svg">
<path d="M50 22.6667C50 22.2289 49.9138 21.7955 49.7463 21.3911C49.5788 20.9866 49.3332 20.6192 49.0237 20.3096C48.7142 20.0001 48.3467 19.7546 47.9423 19.5871C47.5379 19.4196 47.1044 19.3333 46.6667 19.3333C46.2289 19.3333 45.7955 19.4196 45.3911 19.5871C44.9866 19.7546 44.6192 20.0001 44.3096 20.3096C44.0001 20.6192 43.7546 20.9866 43.5871 21.3911C43.4196 21.7955 43.3333 22.2289 43.3333 22.6667H50ZM12.6667 22.6667C12.6667 21.7826 12.3155 20.9348 11.6904 20.3096C11.0652 19.6845 10.2174 19.3333 9.33334 19.3333C8.44928 19.3333 7.60143 19.6845 6.97631 20.3096C6.35119 20.9348 6 21.7826 6 22.6667H12.6667ZM49.6427 30.3573C50.2679 30.9825 51.1158 31.3338 52 31.3338C52.8842 31.3338 53.7321 30.9825 54.3573 30.3573C54.9825 29.7321 55.3338 28.8842 55.3338 28C55.3338 27.1158 54.9825 26.2679 54.3573 25.6427L49.6427 30.3573ZM28 4L30.3573 1.64267C30.0478 1.33305 29.6803 1.08744 29.2758 0.919865C28.8713 0.752294 28.4378 0.666046 28 0.666046C27.5622 0.666046 27.1287 0.752294 26.7242 0.919865C26.3197 1.08744 25.9522 1.33305 25.6427 1.64267L28 4ZM1.64267 25.6427C1.01746 26.2679 0.666229 27.1158 0.666229 28C0.666229 28.8842 1.01746 29.7321 1.64267 30.3573C2.26787 30.9825 3.11583 31.3338 4 31.3338C4.88417 31.3338 5.73213 30.9825 6.35734 30.3573L1.64267 25.6427ZM14.6667 55.3333H41.3333V48.6667H14.6667V55.3333ZM50 46.6667V22.6667H43.3333V46.6667H50ZM12.6667 46.6667V22.6667H6V46.6667H12.6667ZM54.3573 25.6427L30.3573 1.64267L25.6427 6.35733L49.6427 30.3573L54.3573 25.6427ZM25.6427 1.64267L1.64267 25.6427L6.35734 30.3573L30.3573 6.35733L25.6427 1.64267ZM41.3333 55.3333C43.6319 55.3333 45.8363 54.4202 47.4616 52.7949C49.0869 51.1696 50 48.9652 50 46.6667H43.3333C43.3333 47.1971 43.1226 47.7058 42.7476 48.0809C42.3725 48.456 41.8638 48.6667 41.3333 48.6667V55.3333ZM14.6667 48.6667C14.1362 48.6667 13.6275 48.456 13.2525 48.0809C12.8774 47.7058 12.6667 47.1971 12.6667 46.6667H6C6 48.9652 6.91309 51.1696 8.53841 52.7949C10.1637 54.4202 12.3681 55.3333 14.6667 55.3333V48.6667Z" fill="#222222"/>
</svg>
