<svg width="57" height="50" viewBox="0 0 57 50" fill="none" xmlns="http://www.w3.org/2000/svg">
<path d="M4 41.884C4 46.348 7.526 50 11.836 50H44.164C48.474 50 52 46.146 52 41.68V2.86C52 0.260001 48.82 -0.939999 47.03 0.86L37.95 10H18.326L9 0.86C7.2 -0.939999 4 0.260001 4 2.86V41.884Z" fill="#FFB02E"/>
<path d="M14 11.854L8.40004 17.054C7.40004 18.054 5.60004 17.254 5.60004 15.854V5.454C5.60004 4.254 7.40004 3.454 8.40004 4.454L14 9.654C14.6 10.254 14.6 11.254 14 11.854ZM42.1 11.854L47.7 17.054C48.7 18.054 50.5 17.254 50.5 15.854V5.454C50.5 4.254 48.7 3.454 47.7 4.454L42.1 9.654C41.5 10.254 41.5 11.254 42.1 11.854Z" fill="#FF822D"/>
<path d="M30.086 30H25.914C25.7162 30 25.5228 30.0588 25.3583 30.1688C25.1938 30.2788 25.0657 30.4351 24.9901 30.618C24.9145 30.8009 24.8949 31.002 24.9337 31.1961C24.9725 31.3901 25.0679 31.5683 25.208 31.708L27.294 33.792C27.4816 33.9795 27.7359 34.0848 28.001 34.0848C28.2662 34.0848 28.5205 33.9795 28.708 33.792L30.794 31.708C30.9342 31.5681 31.0298 31.3898 31.0685 31.1956C31.1072 31.0014 31.0874 30.8 31.0116 30.6171C30.9358 30.4341 30.8073 30.2778 30.6425 30.168C30.4778 30.0581 30.2841 29.9996 30.086 30Z" fill="#F70A8D"/>
<path d="M1.44803 30.106C1.3305 30.046 1.20225 30.0098 1.07068 29.9995C0.939102 29.9893 0.806801 30.0052 0.681402 30.0463C0.556003 30.0875 0.439987 30.153 0.340043 30.2392C0.240098 30.3254 0.158202 30.4305 0.0990764 30.5485C0.0399505 30.6665 0.00476385 30.795 -0.00445445 30.9267C-0.0136728 31.0583 0.0032595 31.1905 0.045366 31.3156C0.0874724 31.4407 0.15392 31.5562 0.240879 31.6554C0.327837 31.7547 0.433586 31.8358 0.552028 31.894L8.55203 35.894C8.66956 35.954 8.7978 35.9902 8.92938 36.0005C9.06096 36.0107 9.19326 35.9948 9.31866 35.9537C9.44405 35.9125 9.56007 35.847 9.66001 35.7608C9.75996 35.6746 9.84185 35.5695 9.90098 35.4515C9.96011 35.3335 9.99529 35.205 10.0045 35.0733C10.0137 34.9417 9.9968 34.8095 9.95469 34.6844C9.91258 34.5593 9.84614 34.4438 9.75918 34.3446C9.67222 34.2453 9.56647 34.1642 9.44803 34.106L1.44803 30.106ZM1.44803 43.894C1.3305 43.954 1.20225 43.9902 1.07068 44.0005C0.939102 44.0107 0.806801 43.9948 0.681402 43.9537C0.556003 43.9125 0.439987 43.847 0.340043 43.7608C0.240098 43.6746 0.158202 43.5695 0.0990764 43.4515C0.0399505 43.3335 0.00476385 43.205 -0.00445445 43.0733C-0.0136728 42.9417 0.0032595 42.8095 0.045366 42.6844C0.0874724 42.5593 0.15392 42.4438 0.240879 42.3446C0.327837 42.2453 0.433586 42.1642 0.552028 42.106L8.55203 38.106C8.66956 38.046 8.7978 38.0098 8.92938 37.9995C9.06096 37.9893 9.19326 38.0052 9.31866 38.0463C9.44405 38.0875 9.56007 38.153 9.66001 38.2392C9.75996 38.3254 9.84185 38.4305 9.90098 38.5485C9.96011 38.6665 9.99529 38.795 10.0045 38.9267C10.0137 39.0583 9.9968 39.1905 9.95469 39.3156C9.91258 39.4407 9.84614 39.5562 9.75918 39.6554C9.67222 39.7547 9.56647 39.8358 9.44803 39.894L1.44803 43.894ZM55.894 30.552C55.7752 30.3154 55.5674 30.1356 55.3162 30.052C55.065 29.9684 54.7909 29.9878 54.554 30.106L46.554 34.106C46.4324 34.1622 46.3234 34.2422 46.2333 34.3413C46.1433 34.4404 46.074 34.5566 46.0297 34.683C45.9854 34.8093 45.9669 34.9433 45.9754 35.077C45.9838 35.2107 46.0191 35.3412 46.079 35.461C46.1389 35.5808 46.2222 35.6874 46.324 35.7743C46.4259 35.8613 46.5442 35.9269 46.6719 35.9673C46.7995 36.0077 46.934 36.022 47.0674 36.0094C47.2007 35.9968 47.3302 35.9576 47.448 35.894L55.448 31.894C55.6846 31.7752 55.8644 31.5674 55.948 31.3162C56.0316 31.065 56.0122 30.7909 55.894 30.554M54.554 43.894C54.6719 43.9576 54.8013 43.9968 54.9347 44.0094C55.068 44.022 55.2025 44.0077 55.3302 43.9673C55.4579 43.9269 55.5762 43.8613 55.678 43.7743C55.7799 43.6874 55.8632 43.5808 55.9231 43.461C55.983 43.3412 56.0182 43.2107 56.0267 43.077C56.0351 42.9433 56.0167 42.8093 55.9724 42.683C55.928 42.5566 55.8588 42.4404 55.7687 42.3413C55.6787 42.2422 55.5696 42.1622 55.448 42.106L47.448 38.106C47.3305 38.046 47.2023 38.0098 47.0707 37.9995C46.9391 37.9893 46.8068 38.0052 46.6814 38.0463C46.556 38.0875 46.44 38.153 46.34 38.2392C46.2401 38.3254 46.1582 38.4305 46.0991 38.5485C46.0399 38.6665 46.0048 38.795 45.9955 38.9267C45.9863 39.0583 46.0033 39.1905 46.0454 39.3156C46.0875 39.4407 46.1539 39.5562 46.2409 39.6554C46.3278 39.7547 46.4336 39.8358 46.552 39.894L54.554 43.894Z" fill="#FF6723"/>
<path d="M28 36.212C26.926 37.29 25.086 38 23 38C20.936 38 19.116 37.306 18.036 36.248C18.276 37.696 19.892 45 28 45C36.108 45 37.722 37.696 37.964 36.248C36.884 37.306 35.064 38 33 38C30.912 38 29.074 37.29 28 36.212Z" fill="#BB1D80"/>
<path d="M17.372 19.34C17.372 19.34 15.578 17.972 13.908 18.18C9.812 18.684 9.284 22.28 10.728 24.418C13.32 28.238 21.04 30 21.04 30C21.04 30 26.256 24.492 25.99 19.996C25.848 17.486 23.158 14.806 19.49 16.566C18.004 17.278 17.372 19.34 17.372 19.34ZM38.62 19.34C38.62 19.34 40.412 17.972 42.08 18.18C46.194 18.684 46.724 22.28 45.258 24.418C42.672 28.238 34.958 30 34.958 30C34.958 30 29.746 24.492 30.01 19.996C30.152 17.486 32.84 14.806 36.504 16.566C37.99 17.278 38.622 19.34 38.622 19.34" fill="#CA0B4A"/>
</svg>
