<svg width="51" height="48" viewBox="0 0 51 48" fill="none" xmlns="http://www.w3.org/2000/svg">
<path d="M19 13.3333V7.99999C19 6.5855 19.5619 5.22895 20.5621 4.22875C21.5623 3.22856 22.9188 2.66666 24.3333 2.66666H43C44.4145 2.66666 45.771 3.22856 46.7712 4.22875C47.7714 5.22895 48.3333 6.5855 48.3333 7.99999V40C48.3333 41.4145 47.7714 42.771 46.7712 43.7712C45.771 44.7714 44.4145 45.3333 43 45.3333H24.3333C22.9188 45.3333 21.5623 44.7714 20.5621 43.7712C19.5619 42.771 19 41.4145 19 40V34.6667" stroke="#222222" stroke-width="5.33333" stroke-linecap="round" stroke-linejoin="round"/>
<path d="M3 24H37.6667M37.6667 24L29.6667 16M37.6667 24L29.6667 32" stroke="#222222" stroke-width="5.33333" stroke-linecap="round" stroke-linejoin="round"/>
</svg>
