<svg width="64" height="64" viewBox="0 0 64 64" fill="none" xmlns="http://www.w3.org/2000/svg">
<path d="M42 0.0625L64 11.0625V35.5938L60 33.5938V15.5312L44 23.5312V31.5938L40 33.5938V23.5312L24 15.5312V22.625L20 20.625V11.0625L42 0.0625ZM42 20.0625L47.5312 17.2812L33.0625 9L26.4688 12.3125L42 20.0625ZM51.8438 15.1562L57.5312 12.3125L42 4.53125L37.3438 6.875L51.8438 15.1562ZM36 35.5938L32 37.5938V37.5625L20 43.5625V57.7812L32 51.75V56.25L18 63.25L0 54.2188V33.0938L18 24.0938L36 33.0938V35.5938ZM16 57.7812V43.5625L4 37.5625V51.75L16 57.7812ZM18 40.0938L29.5312 34.3438L18 28.5625L6.46875 34.3438L18 40.0938ZM36 40.0625L50 33.0625L64 40.0625V56.5312L50 63.5312L36 56.5312V40.0625ZM48 58.0625V48.5312L40 44.5312V54.0625L48 58.0625ZM60 54.0625V44.5312L52 48.5312V58.0625L60 54.0625ZM50 45.0625L57.5312 41.2812L50 37.5312L42.4688 41.2812L50 45.0625Z" fill="#222222"/>
</svg>
